<?xml version="1.0" encoding="utf-8"?>
<!-- Generator: Adobe Illustrator 27.5.0, SVG Export Plug-In . SVG Version: 6.00 Build 0)  -->
<svg version="1.1" xmlns="http://www.w3.org/2000/svg" xmlns:xlink="http://www.w3.org/1999/xlink" x="0px" y="0px"
	 viewBox="0 0 3710 3710" style="enable-background:new 0 0 3710 3710;" xml:space="preserve">
<g id="Background">
	<g>
		<g>
			<rect style="fill:#FFFFFF;" width="3710" height="3710"/>
		</g>
	</g>
</g>
<g id="Illustration">
	<g>
		<path style="fill:#F4F7FA;" d="M3213.822,1652.105c-75.893-496.755-387.054-1107.054-1001.787-1170.924
			c0,0-466.734-56.77-926.831,29.272c-273.068,51.065-512.508,203.078-664.016,421.557
			c-151.51,218.481-202.118,484.887-140.698,738.872c39.892,164.964,66.848,335.694,59.451,505.203
			c-9.329,213.78-26.898,438.556,67.607,637.914c138.471,292.088,476.329,378.127,771.132,405.569
			c108.637,10.112,217.676,14.188,326.409,22.785c208.59,16.491,442.511-10.196,643.553-64.503
			C3373.194,2901.088,3289.715,2148.858,3213.822,1652.105z"/>
		<path style="opacity:0.3;fill:#BFC8D6;" d="M2580.094,986.127l-64.11,4.325c-7.359-28.606-17.025-56.242-29.018-82.586
			l53.187-35.694c14.512-9.739,18.24-29.447,8.331-44.025l-62.033-91.271c-9.932-14.611-29.781-18.585-44.339-8.869l-53.899,35.973
			c-20.469-20.974-42.704-40.209-66.491-57.437l28.421-58.358c7.664-15.736,0.957-34.847-14.985-42.69l-99.877-49.147
			c-16-7.874-35.224-1.486-42.929,14.28l-28.621,58.545c-27.991-8.144-56.958-13.852-86.599-17.146l-4.982-65.654
			c-1.338-17.626-16.854-31.063-34.668-30.013l-111.637,6.583c-17.889,1.055-31.313,16.242-29.971,33.919l4.997,65.849
			c-29.072,6.872-57.16,16.08-83.953,27.614l-37.652-54.896c-10.152-14.805-30.469-18.871-45.384-9.078l-93.434,61.36
			c-14.97,9.83-18.841,29.828-8.638,44.654l37.779,54.908c-21.457,20.274-41.058,42.391-58.627,66.058l-60.449-29.202
			c-16.367-7.907-36.045-1.365-43.945,14.618l-49.459,100.067c-7.92,16.019-1.028,35.397,15.384,43.274l60.006,28.801
			c-8.189,28.123-13.798,57.246-16.901,87.045l-66.44,4.482c-18.187,1.227-31.845,16.676-30.492,34.508l8.462,111.506
			c1.353,17.83,17.201,31.245,35.384,29.966l65.898-4.639c7.431,29.243,17.309,57.452,29.573,84.331l-54.213,36.183
			c-15.052,10.046-18.946,30.167-8.691,44.933l64.052,92.243c10.23,14.734,30.691,18.508,45.694,8.44l53.788-36.096
			c21.108,21.375,44.091,40.852,68.631,58.251l-28.112,57.506c-7.858,16.071-1.008,35.33,15.29,43.004l101.726,47.909
			c16.238,7.647,35.729,0.834,43.541-15.206l27.743-56.968c28.703,7.949,58.383,13.311,88.695,16.171l4.778,62.971
			c1.342,17.677,16.918,30.866,34.781,29.458l111.469-8.794c17.787-1.403,31.114-16.831,29.776-34.455l-4.764-62.786
			c29.323-7.448,57.592-17.248,84.466-29.42l35.587,51.719c10.005,14.544,29.993,18.233,44.639,8.246l91.418-62.332
			c14.591-9.949,18.343-29.781,8.384-44.301l-35.687-52.032c21.134-20.62,40.427-43.01,57.606-66.95l57.042,27.378
			c15.874,7.618,34.916,0.964,42.539-14.857l47.608-98.828c7.604-15.786,0.94-34.777-14.891-42.425l-57.155-27.611
			c7.783-27.869,13.085-56.685,15.889-86.159l63.586-4.476c17.496-1.232,30.599-16.398,29.273-33.874l-8.294-109.295
			C2612.85,998.157,2597.594,984.946,2580.094,986.127z M2002.212,789.738c179.67-11.411,335.436,123.109,348.89,300.4
			c13.453,177.289-120.382,331.777-299.904,345.131c-180.609,13.435-338.852-120.915-352.453-300.152
			C1685.142,955.878,1821.454,801.218,2002.212,789.738z"/>
		<g>
			<linearGradient id="SVGID_1_" gradientUnits="userSpaceOnUse" x1="3118.7419" y1="1012.5604" x2="2634.937" y2="1461.5311">
				<stop  offset="0" style="stop-color:#FFC444"/>
				<stop  offset="0.9964" style="stop-color:#F36F56"/>
			</linearGradient>
			<path style="fill:url(#SVGID_1_);" d="M1604.522,972.889v1813.465l1229.28-82.565c27.917-1.695,49.572-21.936,49.572-46.337
				V1038.938c0-25.144-22.947-45.723-51.772-46.431L1604.522,972.889z"/>
			
				<linearGradient id="SVGID_00000054965929544988348250000001203602164373249164_" gradientUnits="userSpaceOnUse" x1="1542.0801" y1="1879.6211" x2="2823.6069" y2="1879.6211">
				<stop  offset="0" style="stop-color:#FFFFFF"/>
				<stop  offset="0.9964" style="stop-color:#EBEFF2"/>
			</linearGradient>
			<path style="fill:url(#SVGID_00000054965929544988348250000001203602164373249164_);" d="M1542.08,1026.516v1706.211
				l1234.887-78.26c26.266-1.594,46.639-20.639,46.639-43.597V1088.08c0-23.657-21.589-43.019-48.71-43.685L1542.08,1026.516z"/>
			
				<linearGradient id="SVGID_00000062871766811398073480000015713687358104326273_" gradientUnits="userSpaceOnUse" x1="3159.5132" y1="1025.6605" x2="2670.0974" y2="1479.8381">
				<stop  offset="0" style="stop-color:#FFC444"/>
				<stop  offset="0.9964" style="stop-color:#F36F56"/>
			</linearGradient>
			<path style="fill:url(#SVGID_00000062871766811398073480000015713687358104326273_);" d="M2970.649,1435.101h-136.492v-343.204
				h136.492c2.304,0,4.172,1.868,4.172,4.172v334.861C2974.821,1433.233,2972.953,1435.101,2970.649,1435.101z"/>
			
				<linearGradient id="SVGID_00000098178563391529553730000001666092346104795059_" gradientUnits="userSpaceOnUse" x1="2549.0608" y1="1488.4672" x2="944.5897" y2="3072.885">
				<stop  offset="0" style="stop-color:#FFC444"/>
				<stop  offset="0.9964" style="stop-color:#F36F56"/>
			</linearGradient>
			<path style="fill:url(#SVGID_00000098178563391529553730000001666092346104795059_);" d="M1528.014,1024.322v1716.439
				c0,26.237,21.935,48.558,51.671,52.579l992.938,134.258c31.149,3.508,58.744-17.644,58.744-45.03V987.224
				c0-25.536-24.143-46.049-53.42-45.388l-990.979,29.309C1554.09,972.118,1528.014,995.639,1528.014,1024.322z"/>
			
				<linearGradient id="SVGID_00000134236215808168451920000003192951990902179508_" gradientUnits="userSpaceOnUse" x1="2443.8242" y1="1449.3475" x2="886.2824" y2="2987.4224">
				<stop  offset="0" style="stop-color:#FFC444"/>
				<stop  offset="0.9964" style="stop-color:#F36F56"/>
			</linearGradient>
			<path style="opacity:0.3;fill:url(#SVGID_00000134236215808168451920000003192951990902179508_);" d="M1989.448,2398.507
				c-14.313-200.443,128.015-248.286,104.026-482.162c-34.737-338.679-355.089-451.711-328.505-730.404
				c8.3-87.004,47.725-161.863,94.957-222.869l-272.959,8.074c-32.877,0.973-58.953,24.493-58.953,53.177V2740.76
				c0,26.238,21.935,48.559,51.671,52.579l764.989,103.437C2077.766,2704.455,1999.113,2533.832,1989.448,2398.507z"/>
		</g>
		<g>
			<g>
				<g>
					<defs>
						<path id="SVGID_00000149368183986676912570000013826444227904402340_" d="M760.584,1347.281
							c24.589-17.157,60.366-24.664,90.061-24.331c210.497,2.366,205.1,442.315,164.994,537.441
							c-40.106,95.126-21.96,128.936,138.658,193.622c160.618,64.686,73.46,156.671,48.637,212.611
							c-24.823,55.94-68.598,101.321,46.854,168.417c115.452,67.095,70.785,99.119,70.785,99.119s-240.203,208.451-222.002,136.89
							c18.201-71.561,5.028-182.954-192.954-207.597c-85.275-10.615-212.961-62.2-234.451-156.208
							c-5.004-21.891-7.028-54.866-0.074-76.526c9.647-30.047,31.736-52.535,45.27-80.449
							c31.538-65.052-29.673-119.619-63.537-167.612c-17.679-25.056-35.299-50.712-48.117-78.677
							c-26.611-58.06-10.053-116.624,28.092-164.996c18.292-23.195,43.05-47.367,52.552-76.045
							c10.207-30.807,7.089-74.299,7.933-106.786c0.662-25.477,0.324-50.94,3.837-76.246
							C703.659,1432.832,719.478,1375.964,760.584,1347.281z"/>
					</defs>
					
						<linearGradient id="SVGID_00000163789517115467982570000013331726997714204851_" gradientUnits="userSpaceOnUse" x1="1024.5454" y1="1244.7446" x2="843.0102" y2="3887.0737">
						<stop  offset="0" style="stop-color:#FFC444"/>
						<stop  offset="0.9964" style="stop-color:#F36F56"/>
					</linearGradient>
					
						<use xlink:href="#SVGID_00000149368183986676912570000013826444227904402340_"  style="overflow:visible;fill:url(#SVGID_00000163789517115467982570000013331726997714204851_);"/>
					<clipPath id="SVGID_00000070804572261238018320000002383544097608639156_">
						<use xlink:href="#SVGID_00000149368183986676912570000013826444227904402340_"  style="overflow:visible;"/>
					</clipPath>
					<g style="opacity:0.8;clip-path:url(#SVGID_00000070804572261238018320000002383544097608639156_);">
						<g>
							<path style="fill:#FFFFFF;" d="M1327.547,2662.802c1.39,0.633,3.068,0.158,3.907-1.169c0.916-1.45,0.485-3.367-0.966-4.283
								c-0.89-0.563-90.144-57.295-187.567-146.657c-89.768-82.341-205.04-210.019-244.404-350.668
								c-32.877-117.47-55.918-309.093-63.218-525.734c-6.545-194.264,1.616-336.87,13.286-362.51
								c0.711-1.561,0.022-3.402-1.54-4.112c-1.561-0.711-3.402-0.021-4.113,1.54c-13.652,29.992-19.732,190.448-13.841,365.292
								c7.315,217.115,30.44,409.271,63.443,527.198c39.768,142.092,155.872,270.743,246.268,353.647
								c97.824,89.716,187.472,146.689,188.366,147.254C1327.293,2662.676,1327.419,2662.743,1327.547,2662.802z"/>
						</g>
						<g>
							<path style="fill:#FFFFFF;" d="M832.576,1671.621c1.553,0.707,3.22,0.395,3.938-1.156
								c0.951-2.052,96.205-205.538,200.704-244.663c1.606-0.6,2.379-2.299,1.777-3.905c-0.601-1.606-2.411-2.375-4.017-1.773
								c-106.888,40.018-200.164,239.233-204.09,247.709c-0.72,1.556,0.108,3.069,1.669,3.78
								C832.565,1671.615,832.571,1671.618,832.576,1671.621z"/>
						</g>
						<g>
							<path style="fill:#FFFFFF;" d="M850.623,1918.157c1.159,0.528,2.574,0.303,3.513-0.663c1.195-1.23,1.167-3.196-0.063-4.391
								c-0.533-0.518-54.102-52.356-121.727-97.719c-91.372-61.29-163.534-82.232-214.484-62.243
								c-1.596,0.626-2.382,2.428-1.756,4.025c0.628,1.596,2.428,2.382,4.025,1.756c117.22-45.985,327.504,156.583,329.615,158.634
								C850.009,1917.813,850.307,1918.013,850.623,1918.157z"/>
						</g>
						<g>
							<path style="fill:#FFFFFF;" d="M1059.826,2436.24c0.304,0.138,0.634,0.229,0.985,0.263c1.706,0.167,3.225-1.082,3.392-2.789
								c0.088-0.897,9.078-90.824,35.723-184.163c24.43-85.578,69.068-191.623,142.992-210.831c1.66-0.432,2.656-2.126,2.224-3.786
								c-0.43-1.661-2.127-2.657-3.786-2.224c-61.642,16.016-111.243,88.426-147.424,215.217
								c-26.788,93.87-35.822,184.281-35.909,185.184C1057.89,2434.467,1058.651,2435.705,1059.826,2436.24z"/>
						</g>
						<g>
							<path style="fill:#FFFFFF;" d="M943.909,2280.243c1.216,0.553,2.699,0.273,3.623-0.783c1.129-1.291,0.999-3.253-0.292-4.381
								c-9.357-8.184-230.231-200.313-323.256-191.34c-1.707,0.165-2.958,1.682-2.793,3.388c0.165,1.708,1.682,2.959,3.389,2.793
								c90.391-8.717,316.301,187.847,318.572,189.832C943.385,2279.958,943.64,2280.121,943.909,2280.243z"/>
						</g>
					</g>
				</g>
			</g>
			<g>
				<g>
					<defs>
						<path id="SVGID_00000108291969885922137420000013841816683639797635_" d="M467.351,2034.728
							c6.608-29.246,27.986-58.9,50.152-78.662c157.131-140.088,449.586,188.63,484.048,285.942
							c34.463,97.313,70.652,110.069,232.919,49.639s159.846,66.267,179.198,124.327c19.351,58.06,17.584,121.088,148.101,92.873
							c130.517-28.216,119.091,25.544,119.091,25.544s-37.03,315.877-71.8,250.736c-34.77-65.141-119.561-138.574-282.456-23.38
							c-70.162,49.616-199.269,97.536-278.491,42.553c-18.448-12.803-42.162-35.805-51.618-56.496
							c-13.118-28.702-11.948-60.202-20.758-89.948c-20.529-69.318-102.526-68.392-159.887-81.037
							c-29.946-6.602-60.253-13.686-88.568-25.713c-58.785-24.97-86.011-79.4-90.419-140.845
							c-2.114-29.464-0.107-64.007-12.409-91.6c-13.216-29.641-44.826-59.677-66.092-84.25
							c-16.677-19.271-34.084-37.858-48.54-58.924C482.934,2136.299,456.304,2083.621,467.351,2034.728z"/>
					</defs>
					
						<linearGradient id="SVGID_00000044867579863443956490000006914430004119575738_" gradientUnits="userSpaceOnUse" x1="464.7884" y1="2375.3079" x2="1681.114" y2="2375.3079">
						<stop  offset="0" style="stop-color:#FF9085"/>
						<stop  offset="1" style="stop-color:#FB6FBB"/>
					</linearGradient>
					
						<use xlink:href="#SVGID_00000108291969885922137420000013841816683639797635_"  style="overflow:visible;fill:url(#SVGID_00000044867579863443956490000006914430004119575738_);"/>
					<clipPath id="SVGID_00000076565856003954301020000006605277080641208464_">
						<use xlink:href="#SVGID_00000108291969885922137420000013841816683639797635_"  style="overflow:visible;"/>
					</clipPath>
					<g style="opacity:0.8;clip-path:url(#SVGID_00000076565856003954301020000006605277080641208464_);">
						<g>
							<path style="fill:#FFFFFF;" d="M1772.693,2624.745c1.453-0.469,2.374-1.95,2.099-3.497c-0.3-1.688-1.911-2.815-3.599-2.514
								c-1.037,0.184-105.213,18.405-237.413,18.019c-121.813-0.355-293.018-17.026-416.875-94.428
								c-103.446-64.647-249.589-190.711-400.957-345.87c-135.733-139.132-225.793-250.003-234.446-276.813
								c-0.527-1.632-2.276-2.528-3.909-2.001c-1.632,0.527-2.528,2.276-2.001,3.909c10.121,31.36,113.746,154.018,235.91,279.241
								c151.7,155.498,298.264,281.901,402.11,346.8c125.128,78.196,297.604,95.024,420.26,95.373
								c132.734,0.376,237.365-17.932,238.405-18.117C1772.421,2624.823,1772.56,2624.789,1772.693,2624.745z"/>
						</g>
						<g>
							<path style="fill:#FFFFFF;" d="M739.379,2226.77c1.624-0.524,2.5-2.326,1.986-3.955c-0.68-2.157-67.48-216.92-16.628-316.243
								c0.782-1.526,0.173-3.414-1.354-4.195c-1.527-0.782-3.399-0.186-4.181,1.34c-52.016,101.592,13.432,312.063,16.242,320.971
								c0.516,1.635,2.283,2.615,3.915,2.088C739.366,2226.774,739.373,2226.772,739.379,2226.77z"/>
						</g>
						<g>
							<path style="fill:#FFFFFF;" d="M918.544,2395.882c1.212-0.391,2.106-1.51,2.149-2.857c0.054-1.714-1.291-3.148-3.005-3.202
								c-0.743-0.024-75.254-2.232-155.788,9.816c-108.813,16.281-176.244,49.43-200.423,98.531
								c-0.758,1.538-0.124,3.399,1.414,4.157c1.54,0.756,3.4,0.124,4.157-1.414c55.629-112.963,347.501-104.977,350.443-104.883
								C917.858,2396.041,918.213,2395.988,918.544,2395.882z"/>
						</g>
						<g>
							<path style="fill:#FFFFFF;" d="M1422.214,2637.731c0.317-0.102,0.623-0.258,0.905-0.469c1.373-1.026,1.654-2.972,0.627-4.346
								c-0.539-0.722-54.49-73.227-97.695-160.149c-39.612-79.696-78.083-188.13-36.403-252.134c0.936-1.438,0.53-3.361-0.908-4.296
								c-1.437-0.937-3.362-0.531-4.296,0.908c-34.755,53.369-22.615,140.295,36.083,258.361
								c43.457,87.411,97.702,160.303,98.246,161.03C1419.589,2637.726,1420.985,2638.128,1422.214,2637.731z"/>
						</g>
						<g>
							<path style="fill:#FFFFFF;" d="M1231.45,2600.571c1.272-0.41,2.178-1.616,2.149-3.02c-0.035-1.715-1.454-3.076-3.168-3.04
								c-12.428,0.258-305.091,7.12-367.782,76.432c-1.151,1.272-1.052,3.236,0.22,4.386c1.272,1.151,3.236,1.053,4.386-0.22
								c60.917-67.348,360.289-74.326,363.305-74.39C1230.871,2600.714,1231.169,2600.662,1231.45,2600.571z"/>
						</g>
					</g>
				</g>
			</g>
		</g>
		<g>
			<g>
				<path style="fill:#AABBCC;" d="M1999.736,662.563c92.149,778.824,184.299,1549.518,276.448,2312.09
					c4.136,34.188-19.485,64.427-52.534,67.242c-370.345,35.131-740.693,71.037-1111.039,107.713
					c-66.064,3.207-102.341-33.71-106.593-70.668c-94.851-823.199-189.7-1655.017-284.55-2495.449
					c-4.253-37.746,27.723-70.19,93.786-66.965c372.171,26.536,744.341,52.72,1116.511,78.554
					C1965.036,597.279,1995.603,627.627,1999.736,662.563z"/>
				<path style="fill:#D8DEE8;" d="M2051.171,660.968c92.73,782.219,185.459,1556.21,278.188,2321.97
					c4.161,34.302-19.604,64.715-52.863,67.552c-384.557,32.567-769.114,65.775-1153.672,99.64
					c-35.094,3.12-67.352-24.677-71.628-61.813C955.75,2261.348,860.303,1425.667,764.855,581.248
					c-4.28-37.905,21.159-67.005,56.488-64.609c387.144,25.825,774.288,51.335,1161.43,76.545
					C2016.255,595.412,2047.011,625.878,2051.171,660.968z"/>
				<path style="fill:#EAEDF3;" d="M2028.829,788.938c85.889,724.721,171.779,1442.371,257.668,2152.966
					c3.887,32.115-18.325,60.477-49.398,63.006c-361.655,29.578-723.313,59.717-1084.968,90.42
					c-32.677,2.802-62.716-23.219-66.708-57.721c-88.253-763.824-176.504-1535.11-264.757-2313.848
					c-3.988-35.232,19.685-62.5,52.567-60.551c363.908,21.187,727.818,42.16,1091.726,62.901
					C1996.221,727.896,2024.952,756.203,2028.829,788.938z"/>
				<path style="opacity:0.8;fill:#F4F7FA;" d="M1964.958,726.112c-359.597-20.495-719.197-41.224-1078.794-62.153
					c11.116,63.912,30.497,133.471,63.18,204.377c119.279,258.778,294.509,273.029,363.065,498.536
					c70.628,232.326-88.655,305.034-10.838,514.794c84.442,227.614,291.538,194.672,400.996,444.348
					c94.346,215.199-27.11,313.573,70.446,444.348c106.93,143.341,304.743,94.743,510.073,143.291
					c-84.752-701.371-169.505-1409.585-254.257-2124.713C2024.952,756.203,1996.221,727.898,1964.958,726.112z"/>
			</g>
		</g>
		<g>
			
				<linearGradient id="SVGID_00000091722947493217292410000018201220124137343159_" gradientUnits="userSpaceOnUse" x1="-553.1276" y1="2776.6113" x2="-430.9055" y2="3217.6736" gradientTransform="matrix(0.9968 0.0799 -0.0799 0.9968 3360.9282 65.4365)">
				<stop  offset="0" style="stop-color:#311944"/>
				<stop  offset="1" style="stop-color:#893976"/>
			</linearGradient>
			<path style="fill:url(#SVGID_00000091722947493217292410000018201220124137343159_);" d="M2687.793,3047.82
				c0,0,3.923,24.014,3.423,32.559c-0.498,8.547-95.336,12.915-96.294,6.513s15.676-16.583,27.383-20.175
				c11.708-3.594,45.974-13.183,45.974-13.183L2687.793,3047.82z"/>
			
				<linearGradient id="SVGID_00000131335948582359588030000009744600500233190281_" gradientUnits="userSpaceOnUse" x1="-444.3507" y1="3088.4465" x2="-442.5792" y2="2939.6536" gradientTransform="matrix(0.9968 0.0799 -0.0799 0.9968 3360.9282 65.4365)">
				<stop  offset="0" style="stop-color:#FFC444"/>
				<stop  offset="0.9964" style="stop-color:#F36F56"/>
			</linearGradient>
			<path style="fill:url(#SVGID_00000131335948582359588030000009744600500233190281_);" d="M2664.773,3023.88l3.025,29.859
				c0,0,11.016,7.28,20.723,1.661l4.857-32.501L2664.773,3023.88z"/>
			
				<linearGradient id="SVGID_00000082336630564377478780000006053541655423529640_" gradientUnits="userSpaceOnUse" x1="-400.1089" y1="2734.2021" x2="-277.8859" y2="3175.2673" gradientTransform="matrix(0.9968 0.0799 -0.0799 0.9968 3360.9282 65.4365)">
				<stop  offset="0" style="stop-color:#311944"/>
				<stop  offset="1" style="stop-color:#893976"/>
			</linearGradient>
			<path style="fill:url(#SVGID_00000082336630564377478780000006053541655423529640_);" d="M2857,3086.748
				c0,0,3.924,24.013,3.425,32.559c-0.499,8.547-95.338,12.915-96.295,6.513c-0.958-6.402,15.676-16.583,27.384-20.176
				c11.707-3.593,45.973-13.183,45.973-13.183L2857,3086.748z"/>
			
				<linearGradient id="SVGID_00000047755637239564488690000016980592697427721346_" gradientUnits="userSpaceOnUse" x1="-272.2974" y1="3090.4912" x2="-270.5259" y2="2941.6973" gradientTransform="matrix(0.9968 0.0799 -0.0799 0.9968 3360.9282 65.4365)">
				<stop  offset="0" style="stop-color:#FFC444"/>
				<stop  offset="0.9964" style="stop-color:#F36F56"/>
			</linearGradient>
			<path style="fill:url(#SVGID_00000047755637239564488690000016980592697427721346_);" d="M2833.98,3062.808l3.025,29.859
				c0,0,11.016,7.281,20.723,1.661l4.856-32.501L2833.98,3062.808z"/>
			
				<linearGradient id="SVGID_00000096756588214405227720000010186613777175973564_" gradientUnits="userSpaceOnUse" x1="-530.1341" y1="2609.915" x2="-371.7131" y2="2609.915" gradientTransform="matrix(0.9968 0.0799 -0.0799 0.9968 3360.9282 65.4365)">
				<stop  offset="0" style="stop-color:#444B8C"/>
				<stop  offset="0.9964" style="stop-color:#26264F"/>
			</linearGradient>
			<path style="fill:url(#SVGID_00000096756588214405227720000010186613777175973564_);" d="M2681.982,2244.375
				c-10.962,22.224-21.925,44.449-32.887,66.672c-8.816,126.831-13.198,264.744-10.384,412.234
				c2.093,109.732,7.958,213.681,16.382,311.256c14.863-0.681,29.726-1.366,44.59-2.046c21.492-42.655,46.864-107.28,49.198-187.052
				c2.436-83.211-22.792-94.258-21.192-173.931c2.074-103.263,45.376-130.814,68.446-255.025
				c8.822-47.502,14.762-109.546,7.702-184.819C2763.219,2235.898,2722.601,2240.14,2681.982,2244.375z"/>
			
				<linearGradient id="SVGID_00000009582556000821976250000007245848840528634528_" gradientUnits="userSpaceOnUse" x1="-530.1312" y1="2609.915" x2="-371.7127" y2="2609.915" gradientTransform="matrix(0.9968 0.0799 -0.0799 0.9968 3360.9282 65.4365)">
				<stop  offset="0" style="stop-color:#444B8C"/>
				<stop  offset="0.9964" style="stop-color:#26264F"/>
			</linearGradient>
			<path style="opacity:0.3;fill:url(#SVGID_00000009582556000821976250000007245848840528634528_);" d="M2803.838,2231.662
				c-21.936,2.287-43.873,4.575-65.81,6.867c-39.488,68.717-50.512,140.24-43.583,171.876
				c9.803,44.761,35.736,59.099,34.311,104.039c-1.41,44.467-27.609,55.997-44.228,108.408
				c-11.504,36.287-8.468,69.651-1.923,134.898c13.181,131.428,44.918,171.62,18.334,214.711
				c-7.554,12.243-21.164,26.824-47.83,37.957c0.653,8.059,1.295,16.145,1.984,24.118c14.863-0.678,29.726-1.366,44.59-2.044
				c21.493-42.661,46.864-107.281,49.199-187.054c2.436-83.212-22.791-94.261-21.191-173.932
				c2.074-103.263,45.375-130.812,68.445-255.024C2804.958,2368.98,2810.898,2306.936,2803.838,2231.662z"/>
			
				<linearGradient id="SVGID_00000018224758974985430140000012302922366137730968_" gradientUnits="userSpaceOnUse" x1="-440.695" y1="2632.5444" x2="-200.2008" y2="2632.5444" gradientTransform="matrix(0.9968 0.0799 -0.0799 0.9968 3360.9282 65.4365)">
				<stop  offset="0" style="stop-color:#444B8C"/>
				<stop  offset="0.9964" style="stop-color:#26264F"/>
			</linearGradient>
			<path style="fill:url(#SVGID_00000018224758974985430140000012302922366137730968_);" d="M2740.958,2284.385
				c20.578,112.211,38.754,232.304,52.936,359.668c17.123,153.781,26.261,298.759,29.854,433.365
				c16.313,0.464,32.627,0.922,48.941,1.386c64.284-127.172,68.212-213.393,58.943-269.529
				c-3.572-21.631-13.272-64.047-15.487-127.438c-1.543-44.188,1.276-77.817,4.797-118.242
				c7.719-88.635,17.089-107.984,18.435-175.78c1.265-63.626,1.526-95.821-16.637-114.613
				C2874.889,2223.695,2750.402,2280.004,2740.958,2284.385z"/>
			
				<linearGradient id="SVGID_00000003799748615720169550000011718792813262120588_" gradientUnits="userSpaceOnUse" x1="2385.0054" y1="1701.5638" x2="2364.4849" y2="1817.8466">
				<stop  offset="0" style="stop-color:#FFC444"/>
				<stop  offset="0.9964" style="stop-color:#F36F56"/>
			</linearGradient>
			<path style="fill:url(#SVGID_00000003799748615720169550000011718792813262120588_);" d="M2375.387,1802.398
				c-4.7-6.2-11.802-16.096-12.149-21.463c-0.349-5.368-7.88,2.005-2.55,14.01c1.603,3.61,1.306,5.003,0.456,6.086
				c-2.429,3.097-10.761-3.488-16.494-0.375c-5.738,3.115-7.878,15.401-2.776,21.446c3.767,4.464,9.558,1.199,16.212,4.378
				c5.333,2.547,4.009,8.968,6.571,25.357c5.299-0.252,17.131,8.71,19.101,3.785
				C2391.325,1836.7,2380.086,1808.599,2375.387,1802.398z"/>
			
				<linearGradient id="SVGID_00000092424671172203437190000014397223773271419799_" gradientUnits="userSpaceOnUse" x1="2295.3989" y1="1334.4778" x2="2698.9666" y2="2322.8772">
				<stop  offset="0.0036" style="stop-color:#E38DDD"/>
				<stop  offset="1" style="stop-color:#9571F6"/>
			</linearGradient>
			<path style="fill:url(#SVGID_00000092424671172203437190000014397223773271419799_);" d="M2388.131,1845.05
				c-10.85-0.757-21.698-1.514-32.547-2.271c-25.595,103.425-7.237,203.754,50.53,240.651
				c90.252,57.647,257.981-50.962,294.33-169.222c15.954-51.907,12.322-126.818-19.564-141.373
				c-8.851-4.041-22.585-4.669-52.341,12.038c-88.864,49.892-91.199,144.188-136.375,152.174
				C2472.076,1940.598,2439.641,1927.791,2388.131,1845.05z"/>
			
				<linearGradient id="SVGID_00000057140963102307899150000005853909205904414629_" gradientUnits="userSpaceOnUse" x1="2484.1787" y1="1257.3988" x2="2887.7463" y2="2245.7983">
				<stop  offset="0.0036" style="stop-color:#E38DDD"/>
				<stop  offset="1" style="stop-color:#9571F6"/>
			</linearGradient>
			<path style="fill:url(#SVGID_00000057140963102307899150000005853909205904414629_);" d="M2636.61,2333.802
				c-15.63-25.935,4.002-50.949,8.47-100.086c5.064-55.69-16.389-64.963-37.606-157.255
				c-14.109-61.38-27.654-120.306-11.487-189.282c7.748-33.058,20.888-89.126,67.291-116.208
				c23.946-13.975,56.641-12.578,121.054-9.207c79.654,4.165,119.48,6.247,149.182,21.887c4.347,2.29,94.708,51.44,100.927,131.556
				c6.332,81.54-82.47,92.5-94.314,201.238c-5.317,48.813,4.161,123.891,10.306,172.586c5.902,46.756,9.963,58.728,0.736,72.883
				c-22.239,34.12-90.323,24.394-226.493,4.95C2671.263,2359.235,2648.273,2353.156,2636.61,2333.802z"/>
			
				<linearGradient id="SVGID_00000167386504915003075890000005575689514499480714_" gradientUnits="userSpaceOnUse" x1="2484.1445" y1="1257.4116" x2="2887.7124" y2="2245.812">
				<stop  offset="0.0036" style="stop-color:#E38DDD"/>
				<stop  offset="1" style="stop-color:#9571F6"/>
			</linearGradient>
			<path style="opacity:0.3;fill:url(#SVGID_00000167386504915003075890000005575689514499480714_);" d="M2843.793,2098.953
				c5.758,21.193,26.466,37.023,40.881,88.573c3.112,11.131,25.278,90.389-3.475,109.9c-16.609,11.267-31.518-10.081-71.826-12.868
				c-69.848-4.832-103.122,53.872-148.748,37.842c-7.916-2.785-18.367-8.715-28.802-22.342c-2.078,12.28-1.721,22.945,4.786,33.744
				c11.664,19.354,34.653,25.433,88.067,33.061c136.17,19.444,204.254,29.17,226.493-4.95c9.227-14.156,5.166-26.127-0.736-72.883
				c-6.146-48.695-15.623-123.772-10.306-172.586c11.844-108.738,100.645-119.698,94.314-201.238
				c-1.692-21.798-9.711-41.209-20.433-58.103C2901.358,1902.688,2825.695,2032.355,2843.793,2098.953z"/>
			
				<linearGradient id="SVGID_00000072268946386330585910000016113252206585182342_" gradientUnits="userSpaceOnUse" x1="-284.1953" y1="2233.6665" x2="-197.6224" y2="2233.6665" gradientTransform="matrix(0.9968 0.0799 -0.0799 0.9968 3360.9282 65.4365)">
				<stop  offset="0" style="stop-color:#FFC444"/>
				<stop  offset="0.9964" style="stop-color:#F36F56"/>
			</linearGradient>
			<path style="fill:url(#SVGID_00000072268946386330585910000016113252206585182342_);" d="M2986.076,2259.349l-22.538,14.391
				c-4.047-4.673-13.416-14.101-28.045-17.32c-16.481-3.622-35.4,1.573-35.84,6.833c-0.353,4.214,11.167,8.464,12.948,9.122
				c14.38,5.306,25.049,0.899,30.863,6.68c2.056,2.045,4.618,5.846,10.511,9.369c1.546,0.926,3.169,1.743,4.023,2.077
				c9.598,3.732,26.062-12.977,27.478-14.436L2986.076,2259.349z"/>
			
				<linearGradient id="SVGID_00000140013481227990753180000014866165781513363873_" gradientUnits="userSpaceOnUse" x1="2669.0461" y1="1181.9143" x2="3072.6143" y2="2170.3154">
				<stop  offset="0.0036" style="stop-color:#E38DDD"/>
				<stop  offset="1" style="stop-color:#9571F6"/>
			</linearGradient>
			<path style="fill:url(#SVGID_00000140013481227990753180000014866165781513363873_);" d="M2919.489,1963.746
				c-16.304-39.05-27.6-98.837-1.848-187.625c169.684,66.861,256.222,225.366,222.432,351.016
				c-27.854,103.583-129.195,154.036-151.801,164.65c-5.26-11.973-10.521-23.942-15.781-35.916
				c26.198-29.174,55.719-72.31,51.544-121.534C3018.249,2066.094,2952.498,2042.802,2919.489,1963.746z"/>
			
				<linearGradient id="SVGID_00000026886431014450981440000016928441503605055137_" gradientUnits="userSpaceOnUse" x1="-2322.2561" y1="3408.9299" x2="-2322.2561" y2="3255.4956" gradientTransform="matrix(0.7795 0.6265 -0.6265 0.7795 6685.311 622.2045)">
				<stop  offset="0" style="stop-color:#FFC444"/>
				<stop  offset="0.9964" style="stop-color:#F36F56"/>
			</linearGradient>
			<path style="fill:url(#SVGID_00000026886431014450981440000016928441503605055137_);" d="M2788.502,1681.431
				c0,0,1.34,29.683,10.554,51.912c8.326,20.09,52.123,32.719,61,37.203c8.879,4.484-16.632,17.593-42.251,20.169
				c-25.617,2.576-98.778-3.241-111.966-12.953c-13.188-9.711,10.597-8.981,28.884-15.694c18.284-6.712,28.857-42.473,25.63-58.704
				C2757.127,1687.13,2788.502,1681.431,2788.502,1681.431z"/>
			
				<linearGradient id="SVGID_00000050637620569253759580000010430649036295281553_" gradientUnits="userSpaceOnUse" x1="-409.6203" y1="1753.5461" x2="-473.798" y2="1590.5465" gradientTransform="matrix(0.9968 0.0799 -0.0799 0.9968 3360.9282 65.4365)">
				<stop  offset="0" style="stop-color:#444B8C"/>
				<stop  offset="0.9964" style="stop-color:#3E4177"/>
			</linearGradient>
			<path style="fill:url(#SVGID_00000050637620569253759580000010430649036295281553_);" d="M2747.985,1670.669
				c-13.293-13.06-15.148-14.586-16.597-19.1c-5.809-18.119,8.244-42.932,26.677-49.041c0.959-0.317,13.32-4.274,18.039,1.09
				c4.008,4.554-1.888,10.844,0.915,19.621c2.625,8.218,9.75,8.833,22.952,19.609c10.876,8.874,17.635,14.392,19.195,22.153
				c3.215,16-16.154,39.189-33.3,38.558C2779.699,1703.332,2778.022,1700.182,2747.985,1670.669z"/>
			<g>
				
					<linearGradient id="SVGID_00000075874576915074526570000012389000749552713600_" gradientUnits="userSpaceOnUse" x1="-2430.7126" y1="3364.7114" x2="-2358.9766" y2="3225.2244" gradientTransform="matrix(0.7795 0.6265 -0.6265 0.7795 6685.311 622.2045)">
					<stop  offset="0" style="stop-color:#FFC444"/>
					<stop  offset="0.9964" style="stop-color:#F36F56"/>
				</linearGradient>
				<path style="fill:url(#SVGID_00000075874576915074526570000012389000749552713600_);" d="M2784.187,1706.03
					c0,0-14.129,15.999-35.654,10.71c-19.272-4.735-14.355-48.967-0.251-56.033c4.704-2.356,13.254-2.161,19.683,0.937
					c3.799,1.831,4.854,3.732,11.117,6.603c5.776,2.646,7.608,2.279,9.161,4.144c1.945,2.33,2.781,7.345-3.31,19.45
					c4.39-3.107,9.112-3.757,12.01-1.702c0.462,0.329,1.64,1.478,2.147,2.991C2800.928,1698.609,2795.233,1704.176,2784.187,1706.03
					z"/>
			</g>
		</g>
		<g>
			<polygon style="fill:#AABBCC;" points="2045.968,1830.147 1064.14,1832.16 1050.331,1697.569 2025.496,1697.569 			"/>
			<polygon style="fill:#AABBCC;" points="2082.941,2070.257 1088.644,2075.99 1074.48,1939.331 2062.097,1935.693 			"/>
			<polygon style="fill:#AABBCC;" points="2120.906,2316.601 1113.808,2326.253 1099.244,2180.511 2098.87,2173.153 			"/>
		</g>
		<g>
			<polygon style="fill:#AABBCC;" points="1820.45,1494.552 1160.365,1494.44 1165.44,1550.506 1825.892,1550.506 			"/>
			<polygon style="fill:#AABBCC;" points="1195.011,1414.279 1200.128,1469.995 1319.014,1470.025 1313.811,1414.329 
				1289.416,1414.317 1266.253,1163.153 1290.645,1163.183 1285.545,1108.777 1167.113,1108.617 1172.16,1163.041 
				1196.553,1163.069 1219.52,1414.289 			"/>
			<polygon style="fill:#AABBCC;" points="1348.734,1414.342 1353.963,1470.034 1472.737,1470.064 1467.421,1414.392 
				1443.085,1414.382 1419.494,1163.335 1443.85,1163.363 1438.681,1108.986 1320.362,1108.826 1325.477,1163.223 
				1349.858,1163.253 1373.254,1414.354 			"/>
			<polygon style="fill:#AABBCC;" points="1502.313,1414.407 1507.652,1470.072 1626.314,1470.1 1620.889,1414.458 
				1596.608,1414.446 1572.589,1163.517 1596.911,1163.545 1591.676,1109.193 1473.467,1109.033 1478.65,1163.405 
				1503.018,1163.435 1526.842,1414.417 			"/>
			<polygon style="fill:#AABBCC;" points="1655.747,1414.471 1661.198,1470.111 1779.747,1470.139 1774.211,1414.521 
				1749.986,1414.511 1725.54,1163.699 1749.829,1163.727 1744.526,1109.4 1626.426,1109.24 1631.678,1163.587 1656.035,1163.617 
				1680.287,1414.481 			"/>
			<path style="fill:#AABBCC;" d="M1775.338,1030.655h2.168l-343.435-165.536l-312.995,165.536h-2.4l4.095,47.358l657.128,0.414
				L1775.338,1030.655z M1447.177,1012.673c-19.51-0.032-36.807-15.885-38.633-35.398c-1.825-19.508,12.501-35.284,31.996-35.248
				c19.492,0.035,36.781,15.868,38.621,35.371C1481.001,996.908,1466.683,1012.705,1447.177,1012.673z"/>
		</g>
		<g>
			
				<linearGradient id="SVGID_00000093151119884436854950000010084635020481873061_" gradientUnits="userSpaceOnUse" x1="1371.7844" y1="3031.0063" x2="-331.1767" y2="2875.1223" gradientTransform="matrix(0.9966 -0.0282 0.1345 0.99 474.0173 -191.4288)">
				<stop  offset="0" style="stop-color:#444B8C"/>
				<stop  offset="0.9964" style="stop-color:#26264F"/>
			</linearGradient>
			<path style="fill:url(#SVGID_00000093151119884436854950000010084635020481873061_);" d="M2069.295,3100.38
				c3.033,22.43-10.298,41.691-29.663,42.797l-1270.917,74.891c-22.432,1.278-50.461-19.408-53.5-43.627l-111.53-889.052
				c-2.999-23.904,20.188-45.252,42.613-45.347l1266.87-29.463c19.369-0.107,37.634,17.923,40.629,40.074L2069.295,3100.38z"/>
			
				<linearGradient id="SVGID_00000149351096685240392930000008252685275987748233_" gradientUnits="userSpaceOnUse" x1="-127.4679" y1="2922.4128" x2="2124.5872" y2="3006.1873" gradientTransform="matrix(0.9975 -0.0369 0.1345 0.99 472.6763 -185.2697)">
				<stop  offset="0" style="stop-color:#AA80F9"/>
				<stop  offset="0.9964" style="stop-color:#6165D7"/>
			</linearGradient>
			<path style="fill:url(#SVGID_00000149351096685240392930000008252685275987748233_);" d="M2095.097,3101.966
				c3.056,22.57-10.375,41.949-29.887,43.059l-1287.224,73.271c-22.565,1.284-43.571-17.599-46.629-41.958l-112.271-894.153
				c-3.019-24.041,13.006-43.784,35.561-43.882l1283.169-31.506c19.515-0.112,37.916,18.026,40.933,40.313L2095.097,3101.966z"/>
			<g style="opacity:0.7;">
				<path style="fill:#F4F7FA;" d="M1096.251,2910.624l-215.929,7.172c-9.698,0.322-19.193-7.389-21.09-17.137l-10.408-53.468
					c-1.9-9.763,4.504-17.974,14.221-18.245l216.37-6.038c9.458-0.264,18.698,7.391,20.543,17.009l10.1,52.676
					C1111.9,2902.198,1105.691,2910.31,1096.251,2910.624z"/>
				<path style="fill:#F4F7FA;" d="M1376.496,2901.315l-208.656,6.931c-9.369,0.311-18.542-7.273-20.375-16.855l-10.055-52.558
					c-1.836-9.597,4.35-17.664,13.738-17.927l209.074-5.834c9.142-0.255,18.073,7.275,19.855,16.732l9.762,51.793
					C1391.621,2893.04,1385.62,2901.012,1376.496,2901.315z"/>
				<path style="fill:#F4F7FA;" d="M1647.439,2892.316l-201.744,6.701c-9.057,0.301-17.924-7.16-19.696-16.583l-9.719-51.678
					c-1.774-9.436,4.205-17.365,13.28-17.618l202.142-5.641c8.84-0.247,17.477,7.163,19.201,16.463l9.441,50.939
					C1662.066,2884.186,1656.262,2892.023,1647.439,2892.316z"/>
				<path style="fill:#F4F7FA;" d="M1909.534,2883.61l-195.17,6.483c-8.76,0.291-17.336-7.052-19.05-16.319l-9.4-50.828
					c-1.716-9.281,4.068-17.076,12.844-17.321l195.549-5.457c8.554-0.239,16.911,7.054,18.579,16.203l9.136,50.112
					C1923.687,2875.621,1918.071,2883.327,1909.534,2883.61z"/>
			</g>
			<g>
				
					<linearGradient id="SVGID_00000013915521319893806470000001645556353019814564_" gradientUnits="userSpaceOnUse" x1="-305.201" y1="2619.9158" x2="478.0242" y2="3063.9207" gradientTransform="matrix(0.9975 -0.0369 0.1345 0.99 472.6763 -185.2697)">
					<stop  offset="0" style="stop-color:#F57E53"/>
					<stop  offset="0.0045" style="stop-color:#F58152"/>
					<stop  offset="0.042" style="stop-color:#F99A4D"/>
					<stop  offset="0.084" style="stop-color:#FCAD49"/>
					<stop  offset="0.1333" style="stop-color:#FEBA46"/>
					<stop  offset="0.1962" style="stop-color:#FFC244"/>
					<stop  offset="0.3183" style="stop-color:#FFC444"/>
					<stop  offset="0.455" style="stop-color:#FDB946"/>
					<stop  offset="0.6941" style="stop-color:#F99C4C"/>
					<stop  offset="0.9964" style="stop-color:#F36F56"/>
				</linearGradient>
				<path style="fill:url(#SVGID_00000013915521319893806470000001645556353019814564_);" d="M965.049,2695.69l-102.742,2.999
					c-18.759,0.548-36.236-15.588-38.803-35.852l-13.989-110.43c-2.562-20.227,10.716-37.068,29.473-37.429l102.737-1.981
					c18.513-0.357,35.73,15.745,38.293,35.785l13.996,109.415C996.582,2678.276,983.563,2695.149,965.049,2695.69z"/>
				
					<linearGradient id="SVGID_00000037691742617917146230000005412172250332855982_" gradientUnits="userSpaceOnUse" x1="-28.234" y1="2826.4424" x2="123.8101" y2="2826.4424" gradientTransform="matrix(0.9966 -0.0282 0.1345 0.99 474.0173 -191.4288)">
					<stop  offset="0" style="stop-color:#FF9085"/>
					<stop  offset="1" style="stop-color:#FB6FBB"/>
				</linearGradient>
				<path style="fill:url(#SVGID_00000037691742617917146230000005412172250332855982_);" d="M956.495,2685.342l-88.254,2.526
					c-17.343,0.496-33.41-14.349-35.786-33.088l-12.017-94.806c-2.371-18.711,9.833-34.209,27.176-34.554l88.25-1.751
					c17.146-0.34,33.002,14.478,35.375,33.036l12.021,94.035C985.635,2669.326,973.641,2684.851,956.495,2685.342z M848.21,2530.122
					c-14.932,0.3-25.438,13.647-23.395,29.756l12.018,94.784c2.045,16.132,15.878,28.917,30.81,28.493l88.254-2.503
					c14.767-0.419,25.1-13.788,23.054-29.797l-12.022-94.058c-2.043-15.985-15.702-28.747-30.468-28.449L848.21,2530.122z"/>
				<g>
					<g>
						<path style="fill:#F4F7FA;" d="M824.114,2571.667l146.459-3.268L824.114,2571.667z"/>
						
							<linearGradient id="SVGID_00000177468934364182380840000010831338540089573799_" gradientUnits="userSpaceOnUse" x1="-23.0785" y1="2784.9963" x2="123.4946" y2="2784.9963" gradientTransform="matrix(0.9975 -0.0369 0.1345 0.99 472.6763 -185.2697)">
							<stop  offset="0" style="stop-color:#FF9085"/>
							<stop  offset="1" style="stop-color:#FB6FBB"/>
						</linearGradient>
						<polygon style="fill:url(#SVGID_00000177468934364182380840000010831338540089573799_);" points="970.871,2570.737 
							824.413,2574.023 823.816,2569.311 970.273,2566.062 						"/>
					</g>
					<g>
						<path style="fill:#F4F7FA;" d="M828.632,2607.306l146.46-3.549L828.632,2607.306z"/>
						
							<linearGradient id="SVGID_00000106831986919083356130000010778787472144973747_" gradientUnits="userSpaceOnUse" x1="-23.4015" y1="2820.8428" x2="123.2113" y2="2820.8428" gradientTransform="matrix(0.9975 -0.0369 0.1345 0.99 472.6763 -185.2697)">
							<stop  offset="0" style="stop-color:#FF9085"/>
							<stop  offset="1" style="stop-color:#FB6FBB"/>
						</linearGradient>
						<polygon style="fill:url(#SVGID_00000106831986919083356130000010778787472144973747_);" points="975.391,2606.097 
							828.932,2609.664 828.334,2604.949 974.793,2601.419 						"/>
					</g>
					<g>
						<path style="fill:#F4F7FA;" d="M833.152,2642.964l146.462-3.831L833.152,2642.964z"/>
						
							<linearGradient id="SVGID_00000007415699193669167310000008175513325710264487_" gradientUnits="userSpaceOnUse" x1="-23.7249" y1="2856.7075" x2="122.9276" y2="2856.7075" gradientTransform="matrix(0.9975 -0.0369 0.1345 0.99 472.6763 -185.2697)">
							<stop  offset="0" style="stop-color:#FF9085"/>
							<stop  offset="1" style="stop-color:#FB6FBB"/>
						</linearGradient>
						<polygon style="fill:url(#SVGID_00000007415699193669167310000008175513325710264487_);" points="979.913,2641.475 
							833.452,2645.323 832.854,2640.606 979.315,2636.795 						"/>
					</g>
				</g>
				<g>
					<path style="fill:#FEC045;" d="M930.444,2666.646l-40.925,1.129c-10.416,0.287-20.117-8.695-21.548-19.959l-10.498-82.647
						c-1.429-11.249,5.933-20.629,16.349-20.847l40.923-0.855c10.358-0.216,19.993,8.77,21.422,19.971l10.5,82.295
						C948.098,2656.949,940.803,2666.361,930.444,2666.646z"/>
					
						<linearGradient id="SVGID_00000052813587525642630960000008381504249249978298_" gradientUnits="userSpaceOnUse" x1="6.0251" y1="2826.5342" x2="90.0084" y2="2826.5342" gradientTransform="matrix(0.9966 -0.0282 0.1345 0.99 474.0173 -191.4288)">
						<stop  offset="0" style="stop-color:#FF9085"/>
						<stop  offset="1" style="stop-color:#FB6FBB"/>
					</linearGradient>
					<path style="fill:url(#SVGID_00000052813587525642630960000008381504249249978298_);" d="M930.744,2668.993l-40.925,1.134
						c-11.644,0.322-22.429-9.661-24.029-22.253l-10.498-82.656c-1.596-12.576,6.587-23.001,18.23-23.243l40.925-0.85
						c11.577-0.241,22.285,9.747,23.883,22.266l10.5,82.285C950.429,2658.211,942.321,2668.672,930.744,2668.993z M874.12,2546.671
						c-9.241,0.194-15.734,8.47-14.467,18.45l10.498,82.636c1.269,9.993,9.828,17.917,19.068,17.663l40.926-1.123
						c9.191-0.252,15.629-8.555,14.359-18.508l-10.499-82.304c-1.268-9.94-9.771-17.868-18.961-17.675L874.12,2546.671z"/>
				</g>
			</g>
			
				<linearGradient id="SVGID_00000173859418291654130390000002776057544175521463_" gradientUnits="userSpaceOnUse" x1="-125.0009" y1="3229.52" x2="2103.4678" y2="3312.417" gradientTransform="matrix(0.9975 -0.0369 0.1345 0.99 472.6763 -185.2697)">
				<stop  offset="0" style="stop-color:#AA80F9"/>
				<stop  offset="0.9964" style="stop-color:#6165D7"/>
			</linearGradient>
			<path style="opacity:0.3;fill:url(#SVGID_00000173859418291654130390000002776057544175521463_);" d="M1185.665,2968.74
				c-106.525,18.832-175.734,22.931-257.69-1.307c-113.167-33.468-195.446-104.526-241.773-151.679l45.155,359.618
				c3.059,24.359,24.064,43.241,46.629,41.956l1287.224-73.318c19.512-1.111,32.943-20.49,29.887-43.06l-18.467-136.412
				c-203.813-120.325-353.551-130.077-454.722-115.03C1498.898,2867.804,1436.197,2924.45,1185.665,2968.74z"/>
			<g>
				
					<linearGradient id="SVGID_00000078747341370908348200000017207665631580787379_" gradientUnits="userSpaceOnUse" x1="42.6211" y1="2755.1582" x2="95.5272" y2="3130.7917" gradientTransform="matrix(0.9966 -0.0282 0.1345 0.99 474.0173 -191.4288)">
					<stop  offset="0" style="stop-color:#AA80F9"/>
					<stop  offset="0.9964" style="stop-color:#6165D7"/>
				</linearGradient>
				<path style="fill:url(#SVGID_00000078747341370908348200000017207665631580787379_);" d="M1182.479,3076.819l-295.043,14.879
					c-5.665,0.286-10.938-4.507-11.716-10.65l-6.409-50.594c-0.778-6.138,3.223-11.375,8.888-11.638l295.039-13.712
					c5.483-0.255,10.602,4.472,11.38,10.505l6.412,49.729C1191.807,3071.376,1187.961,3076.543,1182.479,3076.819z"/>
				
					<linearGradient id="SVGID_00000119094210140651260730000009840750288090567859_" gradientUnits="userSpaceOnUse" x1="545.0491" y1="2670.0151" x2="599.5134" y2="3056.7112" gradientTransform="matrix(0.9966 -0.0282 0.1345 0.99 474.0173 -191.4288)">
					<stop  offset="0" style="stop-color:#AA80F9"/>
					<stop  offset="0.9964" style="stop-color:#6165D7"/>
				</linearGradient>
				<path style="fill:url(#SVGID_00000119094210140651260730000009840750288090567859_);" d="M1735.924,3050.391l-381.465,19.207
					c-5.495,0.277-10.637-4.447-11.423-10.496l-6.479-49.823c-0.786-6.044,3.069-11.198,8.564-11.453l381.467-17.715
					c5.267-0.244,10.217,4.393,11.003,10.305l6.478,48.734C1744.854,3045.067,1741.19,3050.125,1735.924,3050.391z"/>
			</g>
			
				<linearGradient id="SVGID_00000091697912738945252810000010762540469194582153_" gradientUnits="userSpaceOnUse" x1="720.5579" y1="2657.2903" x2="932.5977" y2="2657.2903" gradientTransform="matrix(0.9739 -0.1443 0.2507 0.9798 303.8133 -34.2391)">
				<stop  offset="0" style="stop-color:#AA80F9"/>
				<stop  offset="0.9964" style="stop-color:#6165D7"/>
			</linearGradient>
			<path style="opacity:0.3;fill:url(#SVGID_00000091697912738945252810000010762540469194582153_);" d="M1880.42,2446.375
				c7.955,59.152-33.285,108.514-91.784,110.2c-58.134,1.674-111.304-44.427-119.081-102.917
				c-7.77-58.439,32.655-107.66,90.612-109.995C1818.487,2341.313,1872.472,2387.272,1880.42,2446.375z"/>
			<g style="opacity:0.53;">
				<path style="fill:#F4F7FA;" d="M1053.209,2611.187c-5.872,7.066-16.891,7.457-24.621,0.815
					c-7.768-6.675-9.212-17.865-3.219-24.931c5.964-7.031,17-7.268,24.646-0.592
					C1057.623,2593.123,1059.05,2604.158,1053.209,2611.187z"/>
				<g>
					<path style="fill:#F4F7FA;" d="M1116.427,2678.433c-1.626,0.094-3.338-0.455-4.748-1.669c-2.828-2.437-3.37-6.623-1.211-9.34
						c31.867-40.099,23.826-102.022-18.138-139.958c-2.843-2.571-3.385-6.748-1.209-9.321c2.17-2.57,6.224-2.563,9.05,0.007
						c47.196,42.915,56.27,112.735,20.5,158.087C1119.599,2677.6,1118.056,2678.338,1116.427,2678.433z"/>
					<path style="fill:#F4F7FA;" d="M1095.892,2660.727c-1.65,0.084-3.385-0.479-4.814-1.71c-2.865-2.469-3.411-6.682-1.218-9.401
						c23.825-29.526,17.876-75.409-13.378-103.333c-2.877-2.571-3.422-6.778-1.216-9.387c2.201-2.607,6.307-2.625,9.166-0.056
						c36.652,32.94,43.651,86.885,15.767,121.708C1099.111,2659.91,1097.545,2660.643,1095.892,2660.727z"/>
					<path style="fill:#F4F7FA;" d="M1075.083,2642.784c-1.674,0.074-3.434-0.504-4.882-1.751c-2.904-2.502-3.453-6.743-1.224-9.463
						c15.46-18.865,11.639-48.372-8.563-66.206c-2.912-2.571-3.46-6.808-1.224-9.453c2.232-2.643,6.391-2.69,9.285-0.121
						c12.538,11.136,20.536,25.997,22.598,41.916c2.062,15.923-2.043,31.139-11.619,42.916
						C1078.347,2641.983,1076.758,2642.71,1075.083,2642.784z"/>
				</g>
			</g>
		</g>
	</g>
</g>
</svg>
